<?xml version="1.0" encoding="iso-8859-1"?>
<!-- Uploaded to: SVG Repo, www.svgrepo.com, Generator: SVG Repo Mixer Tools -->
<svg height="800px" width="800px" version="1.1" id="Layer_1" xmlns="http://www.w3.org/2000/svg" xmlns:xlink="http://www.w3.org/1999/xlink" 
	 viewBox="0 0 512 512" xml:space="preserve">
<path style="fill:#659F00;" d="M17.809,503.652c0,4.61-3.738,8.348-8.348,8.348H8.348C3.738,512,0,508.262,0,503.652
	s3.738-8.348,8.348-8.348h1.113C14.071,495.304,17.809,499.042,17.809,503.652z M237.635,495.304h-1.113
	c-4.61,0-8.348,3.738-8.348,8.348s3.738,8.348,8.348,8.348h1.113c4.61,0,8.348-3.738,8.348-8.348S242.245,495.304,237.635,495.304z
	 M503.652,495.304h-1.113c-4.61,0-8.348,3.738-8.348,8.348s3.738,8.348,8.348,8.348h1.113c4.61,0,8.348-3.738,8.348-8.348
	S508.262,495.304,503.652,495.304z M471.374,495.304h-1.113c-4.61,0-8.348,3.738-8.348,8.348s3.738,8.348,8.348,8.348h1.113
	c4.61,0,8.348-3.738,8.348-8.348S475.984,495.304,471.374,495.304z M203.13,495.304H41.739c-4.61,0-8.348,3.738-8.348,8.348
	S37.129,512,41.739,512H203.13c4.61,0,8.348-3.738,8.348-8.348S207.741,495.304,203.13,495.304z M436.87,495.304H269.913
	c-4.61,0-8.348,3.738-8.348,8.348s3.738,8.348,8.348,8.348H436.87c4.61,0,8.348-3.738,8.348-8.348S441.48,495.304,436.87,495.304z"
	/>
<path style="fill:#3D3D3D;" d="M398.369,507.748L396.243,512h-62.33l-11.13-33.391v-22.261h44.522v22.261h13.055
	c3.125,0,6.209,0.728,9.005,2.126l0,0C399.311,485.708,403.342,497.802,398.369,507.748z M177.887,480.735L177.887,480.735
	c-2.796-1.398-5.879-2.126-9.005-2.126h-13.056v-22.261h-44.522v22.261L122.435,512h62.33l2.126-4.252
	C191.864,497.802,187.833,485.708,177.887,480.735z"/>
<path style="fill:#4F2000;" d="M386.226,298.296l-26.517,180.313h-33.391V322.783L386.226,298.296z M117.983,478.609h33.391
	l26.517-166.957l-59.908,11.13V478.609z"/>
<path style="fill:#BC0000;" d="M169.925,422.957v44.522c0,6.147-4.983,11.13-11.13,11.13h-47.49c-6.147,0-11.13-4.983-11.13-11.13
	v-44.522c0-6.147,4.983-11.13,11.13-11.13h47.49C164.941,411.826,169.925,416.809,169.925,422.957z M367.675,411.826h-47.49
	c-6.147,0-11.13,4.983-11.13,11.13v44.522c0,6.147,4.983,11.13,11.13,11.13h47.49c6.147,0,11.13-4.983,11.13-11.13v-44.522
	C378.805,416.809,373.822,411.826,367.675,411.826z"/>
<path style="fill:#8E3900;" d="M512,91.671v13.383c0,14.482-13.61,25.109-27.66,21.596l-41.385-10.346
	c-11.285-2.822-22.84,3.522-26.517,14.556l-26.872,80.617v66.783c0,32.171-22.751,59.024-53.04,65.36l-17.999,134.988h-44.522
	V345.043l1.064-0.532l-52.46-8.743l-38.328-6.388c-18.263-3.044-36.857-0.987-53.839,5.695l-19.138,143.533H66.783V357.843v-12.8
	v-1.92c-12.966-4.585-22.261-16.935-22.261-31.471v11.13c0,24.588-19.933,44.522-44.522,44.522l0,0V256
	c0-24.588,19.933-44.522,44.522-44.522l0,0l0,0c12.974-19.46,37.806-27.174,59.522-18.487l10.536,4.214
	c5.199,2.08,10.714,3.261,16.309,3.495l149.365,6.223l75.92-173.532l8.182-24.546C366.117,3.563,371.06,0,376.628,0l0,0
	c7.145,0,12.937,5.792,12.937,12.937v20.454h7.116c17.279,0,34.322,4.024,49.776,11.75l53.237,26.618
	C507.236,75.531,512,83.239,512,91.671z"/>
<path style="fill:#4F2000;" d="M419.061,62.33c0,4.61-3.738,8.348-8.348,8.348h-5.565c-4.61,0-8.348-3.738-8.348-8.348
	s3.738-8.348,8.348-8.348h5.565C415.323,53.983,419.061,57.72,419.061,62.33z"/>
<path style="fill:#BF4D00;" d="M144.696,218.896v-14.687c0-12.295,9.966-22.261,22.261-22.261l9.297,2.324
	c23.127,5.782,47.322,5.782,70.449,0l9.297-2.324c12.295,0,22.261,9.966,22.261,22.261v18.396c0,26.047-22.262,46.531-48.219,44.368
	l-44.522-3.71C162.445,261.34,144.696,242.05,144.696,218.896z"/>
<path style="fill:#B2682F;" d="M475.826,90.157c0,4.61-3.738,8.348-8.348,8.348H367.304c-4.61,0-8.348-3.738-8.348-8.348
	s3.738-8.348,8.348-8.348h100.174C472.088,81.809,475.826,85.546,475.826,90.157z"/>
<path style="fill:#D18839;" d="M343.073,63.336c-2.968-5.357,5.101-23.197,8.594-19.642l57.342,109.944l0.616,1.18
	c3.733,7.176-6.548,23.452-8.037,20.598L343.073,63.336z M481.172,58.492c-4.498-1.002-7.056-0.886-8.056,3.615l-13.357,60.104
	c-0.092,0.414-0.152,0.834-0.18,1.256l-8.36,125.397c-1.262,18.935-17.116,33.768-36.094,33.768h-46.021
	c-16.629,0-31.061-11.267-35.094-27.4c-0.02-0.079-0.041-0.158-0.062-0.236l-29.066-103.621c-0.727-2.582-6.052,2.536-9.298,8.974
	c-4.105,8.14-2.226,12.022-1.704,13.879l23.966,85.178c5.938,23.512,26.998,39.923,51.26,39.923h46.021
	c27.736,0,50.907-21.679,52.753-49.352l8.318-124.762l12.765-57.446C489.961,63.265,485.672,59.492,481.172,58.492z"/>
<path style="fill:#4F2000;" d="M0,367.304L0,367.304V256c0-24.588,19.933-44.522,44.522-44.522l0,0v111.304
	C44.522,347.371,24.588,367.304,0,367.304z"/>
<path style="fill:#8C1A00;" d="M166.957,204.262v-22.313l9.297,2.324c23.127,5.782,47.322,5.782,70.449,0l9.297-2.324v25.096
	c0,20.085-17.603,35.625-37.533,33.133l-22.261-2.783C179.496,235.306,166.957,221.102,166.957,204.262z"/>
<path style="fill:#5B5B5B;" d="M347.169,507.748L345.043,512h-47.629c-4.791,0-9.045-3.065-10.559-7.611l-8.594-25.78v-22.261
	h44.522v22.261h6.377c3.125,0,6.209,0.728,9.005,2.126l0,0C348.111,485.708,352.142,497.802,347.169,507.748z M126.687,480.735
	L126.687,480.735c-2.796-1.398-5.879-2.126-9.005-2.126h-6.378v-22.261H66.783v22.261l8.594,25.78
	c1.515,4.545,5.769,7.611,10.559,7.611h47.629l2.126-4.252C140.664,497.802,136.633,485.708,126.687,480.735z"/>
<path style="fill:#F93100;" d="M334.655,422.957v44.522c0,6.147-4.983,11.13-11.13,11.13h-47.49c-6.147,0-11.13-4.983-11.13-11.13
	v-44.522c0-6.147,4.983-11.13,11.13-11.13h47.49C329.671,411.826,334.655,416.809,334.655,422.957z M116.499,411.826h-47.49
	c-6.147,0-11.13,4.983-11.13,11.13v44.522c0,6.147,4.983,11.13,11.13,11.13h47.49c6.147,0,11.13-4.983,11.13-11.13v-44.522
	C127.629,416.809,122.645,411.826,116.499,411.826z"/>
</svg>